<?xml version="1.0" encoding="UTF-8"?>
<svg xmlns="http://www.w3.org/2000/svg" xmlns:xlink="http://www.w3.org/1999/xlink" width="145px" height="50px" viewBox="0 0 145 50" version="1.1">
<g id="surface1">
<path style=" stroke:none;fill-rule:nonzero;fill:rgb(0%,0%,0%);fill-opacity:1;" d="M 118.691406 0 C 113.09375 0 107.664062 1.953125 103.320312 5.527344 C 94.316406 -1.867188 81.476562 -1.84375 72.5 5.585938 C 63.523438 -1.855469 50.683594 -1.875 41.679688 5.527344 C 31.660156 -2.703125 17.101562 -1.640625 8.339844 7.960938 C -0.4375 17.558594 -0.4375 32.421875 8.339844 42.03125 C 17.101562 51.621094 31.660156 52.6875 41.679688 44.453125 C 50.683594 51.855469 63.523438 51.84375 72.5 44.414062 C 81.476562 51.855469 94.316406 51.875 103.320312 44.472656 C 111.710938 51.367188 123.535156 51.855469 132.460938 45.695312 C 141.386719 39.53125 145.3125 28.164062 142.15625 17.65625 C 138.984375 7.167969 129.472656 0 118.691406 0 Z M 103.320312 37.402344 C 97.65625 30.136719 97.65625 19.863281 103.320312 12.597656 C 108.976562 19.863281 108.976562 30.136719 103.320312 37.402344 Z M 72.5 37.324219 C 66.933594 30.085938 66.933594 19.914062 72.5 12.675781 C 78.066406 19.914062 78.066406 30.085938 72.5 37.324219 Z M 41.679688 37.402344 C 36.023438 30.136719 36.023438 19.863281 41.679688 12.597656 C 47.34375 19.863281 47.34375 30.136719 41.679688 37.402344 Z M 6.6875 25 C 6.6875 17.402344 10.898438 10.46875 17.578125 7.089844 C 24.25 3.710938 32.226562 4.484375 38.15625 9.082031 C 30.644531 18.3125 30.644531 31.6875 38.15625 40.917969 C 32.226562 45.515625 24.25 46.289062 17.578125 42.910156 C 10.898438 39.53125 6.6875 32.597656 6.6875 25 Z M 45.203125 40.917969 C 52.726562 31.6875 52.726562 18.3125 45.203125 9.082031 C 52.246094 3.632812 61.992188 3.652344 68.992188 9.148438 C 61.5625 18.359375 61.5625 31.640625 68.992188 40.851562 C 61.992188 46.335938 52.246094 46.367188 45.214844 40.917969 Z M 76.007812 40.851562 C 83.4375 31.640625 83.4375 18.359375 76.007812 9.148438 C 83.007812 3.664062 92.753906 3.632812 99.785156 9.082031 C 92.273438 18.320312 92.273438 31.699219 99.785156 40.9375 C 92.742188 46.375 83.007812 46.347656 76.007812 40.851562 Z M 118.679688 44.980469 C 114.40625 44.992188 110.242188 43.554688 106.835938 40.917969 C 114.355469 31.679688 114.355469 18.300781 106.835938 9.0625 C 113.652344 3.808594 123.015625 3.640625 130 8.671875 C 136.984375 13.691406 139.96875 22.742188 137.382812 31.046875 C 134.796875 39.34375 127.234375 44.980469 118.679688 44.980469 Z M 118.679688 44.980469 "/>
</g>
</svg>
